<svg width="120" height="59" fill="none" xmlns="http://www.w3.org/2000/svg"><path d="M13.296 6.136c0 .928-.248 1.76-.744 2.496-.48.736-1.136 1.32-1.968 1.752a423.1 423.1 0 0 0 1.872 2.448c.608.752 1.056 1.36 1.344 1.824-.144.512-.416.904-.816 1.176a2.244 2.244 0 0 1-1.272.384c-.608 0-1.072-.128-1.392-.384-.32-.272-.624-.64-.912-1.104l-2.304-3.576H5.448v4.824a4.802 4.802 0 0 1-.744.12c-.32.048-.656.072-1.008.072-.752 0-1.28-.128-1.584-.384-.288-.256-.432-.72-.432-1.392V2.752c0-.32.08-.568.24-.744.176-.176.424-.312.744-.408.512-.192 1.128-.328 1.848-.408.72-.08 1.472-.12 2.256-.12 2.176 0 3.808.456 4.896 1.368 1.088.896 1.632 2.128 1.632 3.696ZM6.888 8.248c.768 0 1.392-.168 1.872-.504.48-.352.72-.88.72-1.584 0-1.376-.92-2.064-2.76-2.064-.256 0-.488.016-.696.048-.208.016-.416.04-.624.072v4.032h1.488Zm11.78 3.504c.223.672.615 1.152 1.175 1.44.56.272 1.208.408 1.944.408.672 0 1.304-.088 1.896-.264.592-.192 1.072-.4 1.44-.624.24.16.44.368.6.624.16.256.24.536.24.84 0 .368-.112.688-.336.96-.224.272-.536.504-.936.696-.384.176-.848.304-1.392.384a9.825 9.825 0 0 1-1.752.144 8.543 8.543 0 0 1-2.616-.384 5.945 5.945 0 0 1-2.064-1.176 5.641 5.641 0 0 1-1.368-1.968c-.32-.784-.48-1.704-.48-2.76 0-1.024.16-1.912.48-2.664.336-.752.776-1.376 1.32-1.872a5.217 5.217 0 0 1 1.896-1.08c.72-.24 1.456-.36 2.208-.36.816 0 1.56.128 2.232.384a4.89 4.89 0 0 1 1.752 1.032c.496.448.88.984 1.152 1.608a5.05 5.05 0 0 1 .408 2.04c0 .512-.136.896-.408 1.152-.272.256-.656.424-1.152.504l-6.24.936Zm2.28-4.944c-.689 0-1.265.216-1.729.648-.448.416-.712 1.024-.792 1.824l4.584-.744c-.032-.416-.216-.808-.552-1.176-.336-.368-.84-.552-1.512-.552Zm25.102 9.168a4.723 4.723 0 0 1-.696.12 5.864 5.864 0 0 1-.96.072c-.72 0-1.24-.112-1.56-.336-.304-.24-.456-.696-.456-1.368V8.512c0-.528-.144-.912-.432-1.152-.288-.256-.68-.384-1.176-.384-.32 0-.624.056-.912.168a3.12 3.12 0 0 0-.744.432c.016.08.024.16.024.24.016.08.024.16.024.24v7.92a4.723 4.723 0 0 1-.696.12 5.864 5.864 0 0 1-.96.072c-.72 0-1.24-.112-1.56-.336-.304-.24-.456-.696-.456-1.368V8.512c0-.528-.16-.912-.48-1.152-.32-.256-.712-.384-1.176-.384-.336 0-.64.056-.912.168a4.68 4.68 0 0 0-.672.288v8.544c-.16.048-.384.088-.672.12a5.864 5.864 0 0 1-.96.072c-.72 0-1.24-.112-1.56-.336-.32-.24-.48-.696-.48-1.368V7.048c0-.416.088-.752.264-1.008.176-.256.424-.496.744-.72.528-.368 1.176-.664 1.944-.888a8.867 8.867 0 0 1 2.448-.336 6.11 6.11 0 0 1 1.896.288 4.91 4.91 0 0 1 1.656.84 7.027 7.027 0 0 1 1.632-.792c.608-.224 1.328-.336 2.16-.336.624 0 1.216.08 1.776.24.576.144 1.08.392 1.512.744.432.336.776.784 1.032 1.344.272.544.408 1.208.408 1.992v7.56Zm5.828-4.224c.224.672.616 1.152 1.176 1.44.56.272 1.208.408 1.944.408.672 0 1.304-.088 1.896-.264.592-.192 1.072-.4 1.44-.624.24.16.44.368.6.624.16.256.24.536.24.84 0 .368-.112.688-.336.96-.224.272-.536.504-.936.696-.384.176-.848.304-1.392.384a9.825 9.825 0 0 1-1.752.144 8.543 8.543 0 0 1-2.616-.384 5.945 5.945 0 0 1-2.064-1.176 5.641 5.641 0 0 1-1.368-1.968c-.32-.784-.48-1.704-.48-2.76 0-1.024.16-1.912.48-2.664.336-.752.776-1.376 1.32-1.872a5.217 5.217 0 0 1 1.896-1.08c.72-.24 1.456-.36 2.208-.36.816 0 1.56.128 2.232.384a4.89 4.89 0 0 1 1.752 1.032c.496.448.88.984 1.152 1.608a5.05 5.05 0 0 1 .408 2.04c0 .512-.136.896-.408 1.152-.272.256-.656.424-1.152.504l-6.24.936Zm2.28-4.944c-.688 0-1.264.216-1.728.648-.448.416-.712 1.024-.792 1.824l4.584-.744c-.032-.416-.216-.808-.552-1.176-.336-.368-.84-.552-1.512-.552Zm25.103 9.168a4.723 4.723 0 0 1-.696.12 5.864 5.864 0 0 1-.96.072c-.72 0-1.24-.112-1.56-.336-.304-.24-.456-.696-.456-1.368V8.512c0-.528-.144-.912-.432-1.152-.288-.256-.68-.384-1.176-.384-.32 0-.624.056-.912.168a3.12 3.12 0 0 0-.744.432c.016.08.024.16.024.24.016.08.024.16.024.24v7.92a4.723 4.723 0 0 1-.696.12 5.864 5.864 0 0 1-.96.072c-.72 0-1.24-.112-1.56-.336-.304-.24-.456-.696-.456-1.368V8.512c0-.528-.16-.912-.48-1.152-.32-.256-.712-.384-1.176-.384-.336 0-.64.056-.912.168a4.68 4.68 0 0 0-.672.288v8.544c-.16.048-.384.088-.672.12a5.864 5.864 0 0 1-.96.072c-.72 0-1.24-.112-1.56-.336-.32-.24-.48-.696-.48-1.368V7.048c0-.416.088-.752.264-1.008.176-.256.424-.496.744-.72.528-.368 1.176-.664 1.944-.888a8.867 8.867 0 0 1 2.448-.336 6.11 6.11 0 0 1 1.896.288 4.91 4.91 0 0 1 1.656.84 7.027 7.027 0 0 1 1.632-.792c.608-.224 1.328-.336 2.16-.336.624 0 1.216.08 1.776.24.576.144 1.08.392 1.512.744.432.336.776.784 1.032 1.344.272.544.408 1.208.408 1.992v7.56Zm8.9-11.88c.784 0 1.52.128 2.208.384.688.256 1.28.64 1.776 1.152.512.512.912 1.152 1.2 1.92.288.752.432 1.632.432 2.64 0 1.008-.152 1.896-.456 2.664a5.32 5.32 0 0 1-1.296 1.944c-.544.512-1.208.904-1.992 1.176-.768.256-1.632.384-2.592.384-1.008 0-1.872-.12-2.592-.36s-1.32-.528-1.8-.864c-.688-.464-1.032-1.072-1.032-1.824V.376c.176-.048.408-.096.696-.144.288-.048.608-.072.96-.072.72 0 1.232.12 1.536.36.32.24.48.696.48 1.368v2.736c.32-.144.688-.264 1.104-.36a5.253 5.253 0 0 1 1.368-.168Zm-.672 2.88c-.368 0-.704.056-1.008.168-.288.096-.56.224-.816.384v5.496c.192.128.432.232.72.312.288.08.624.12 1.008.12.8 0 1.432-.272 1.896-.816.48-.544.72-1.36.72-2.448 0-1.12-.232-1.936-.696-2.448-.448-.512-1.056-.768-1.824-.768Zm11.569 4.776c.224.672.616 1.152 1.176 1.44.56.272 1.208.408 1.944.408.672 0 1.304-.088 1.896-.264.592-.192 1.072-.4 1.44-.624.24.16.44.368.6.624.16.256.24.536.24.84 0 .368-.112.688-.336.96-.224.272-.536.504-.936.696-.384.176-.848.304-1.392.384a9.825 9.825 0 0 1-1.752.144 8.545 8.545 0 0 1-2.616-.384 5.945 5.945 0 0 1-2.064-1.176 5.641 5.641 0 0 1-1.368-1.968c-.32-.784-.48-1.704-.48-2.76 0-1.024.16-1.912.48-2.664.336-.752.776-1.376 1.32-1.872a5.217 5.217 0 0 1 1.896-1.08 6.94 6.94 0 0 1 2.208-.36c.816 0 1.56.128 2.232.384a4.89 4.89 0 0 1 1.752 1.032c.496.448.88.984 1.152 1.608a5.05 5.05 0 0 1 .408 2.04c0 .512-.136.896-.408 1.152-.272.256-.656.424-1.152.504l-6.24.936Zm2.28-4.944c-.688 0-1.264.216-1.728.648-.448.416-.712 1.024-.792 1.824l4.584-.744c-.032-.416-.216-.808-.552-1.176-.336-.368-.84-.552-1.512-.552Zm11.303 9.168c-.16.048-.384.088-.672.12a5.864 5.864 0 0 1-.96.072c-.72 0-1.24-.112-1.56-.336-.32-.24-.48-.696-.48-1.368v-7.32c0-.448.112-.832.336-1.152.224-.32.536-.6.936-.84.528-.32 1.16-.568 1.896-.744a9.471 9.471 0 0 1 2.352-.288c1.664 0 2.496.56 2.496 1.68 0 .272-.04.52-.12.744-.08.224-.168.416-.264.576a6.434 6.434 0 0 0-1.344-.12c-.464 0-.928.056-1.392.168a4.997 4.997 0 0 0-1.224.456v8.352ZM1.752 58V18.469H13.79l3.324 24.1 3.302-24.1h12.151V58h-7.232V29.52L20.799 58H13.7L8.895 29.52V58H1.752Zm43.62.36c-2.397 0-4.306-.45-5.728-1.348-1.423-.899-2.441-2.194-3.055-3.886-.614-1.692-.921-3.728-.921-6.11V33.474c0-3.13.898-5.496 2.695-7.098 1.797-1.617 4.268-2.426 7.412-2.426 6.47 0 9.703 3.175 9.703 9.524v2.448c0 2.965-.03 4.956-.09 5.974H43.71v6.514c0 .6.037 1.19.112 1.775.075.569.24 1.04.494 1.415.27.374.697.561 1.28.561.84 0 1.363-.36 1.573-1.078.21-.734.314-1.684.314-2.852v-3.235h7.996v1.91c0 2.515-.314 4.626-.943 6.333-.614 1.692-1.662 2.973-3.144 3.841-1.468.854-3.474 1.28-6.02 1.28Zm-1.708-20.462h3.818V33.36c0-1.212-.15-2.081-.449-2.605-.3-.54-.748-.809-1.348-.809-.643 0-1.145.255-1.504.764-.345.51-.517 1.392-.517 2.65v4.538ZM114 22h-4v-2h5c.56 0 1 .44 1 1v4c0 .56-.44 1-1 1h-1v2h-2v-4h2v-2Zm-2 10h2v-2h-2v2Zm-4-12h-2v8h2v-8Zm12 24v6c0 1.1-.9 2-2 2h-2v2c0 2.22-1.78 4-4 4H84a4 4 0 0 1-4-4v-2h-2c-1.1 0-2-.9-2-2v-6c0-1.1.9-2 2-2h2c0-7.74 6.26-14 14-14h2v-2.54c-1.2-.68-2-1.98-2-3.46 0-2.2 1.8-4 4-4s4 1.8 4 4c0 1.48-.8 2.78-2 3.46V28h2c.68 0 1.34.06 2 .16V34h9.48a13.88 13.88 0 0 1 2.52 8h2c1.1 0 2 .9 2 2Zm-26 1a5 5 0 1 0-10 0 5 5 0 0 0 10 0Zm18 0a5.002 5.002 0 0 0-5-5 5.002 5.002 0 0 0-3.536 8.535A5.002 5.002 0 0 0 112 45Zm-4-15h-2v2h2v-2Z" fill="#fff"/></svg>